# xmcd
#
# Track frame offsets:
#	150
#	12468
#	29230
#	42423
#	54650
#	68270
#	81900
#	92563
#	105858
#	119000
#	130483
#	143660
#	151105
#	161835
#
# Disc length: 2302
#
# Revision: 1
# Processed by: cddbd v1.5.1PL0 Copyright (c) Steve Scherf et al.
# Submitted via: CDex 1.50Beta5
# Normalized: r0:DSETVAR1,TDELIM( - )
#
DISCID=b908fc0e
DTITLE=Various Artist - #1 Blues Hits - Original Artists
DYEAR=1900
DGENRE=Blues
TTITLE0=Louis Jordan - Choo Choo Ch'Boogie
TTITLE1=Jimmy Witherspoon - Ain't Nobody's Business
TTITLE2=Buster Brown - Fannie May
TTITLE3=John Lee Hooker - I'm In The Mood
TTITLE4=Joe Liggins and The Honeydrippers - Pink Champagne
TTITLE5=Eddie Floyd - Knock On Wood
TTITLE6=Lee Dorsey - Ya Ya
TTITLE7=Ben E. King - Stand By Me
TTITLE8=Percy Sledge - When A Man Loves A Woman
TTITLE9=Wilson Pickett - If You Need Me
TTITLE10=Clarence Carter - Patches
TTITLE11=Maurice Williams and The Zodiacs - Stay
TTITLE12=Earnie K. Doe - Mother In Law
TTITLE13=Aretha Franklin - Respect
EXTD=
EXTT0=
EXTT1=
EXTT2=
EXTT3=
EXTT4=
EXTT5=
EXTT6=
EXTT7=
EXTT8=
EXTT9=
EXTT10=
EXTT11=
EXTT12=
EXTT13=
PLAYORDER=
